<svg width="88" height="14" viewBox="0 0 88 14" fill="none" xmlns="http://www.w3.org/2000/svg">
<path d="M6.12962 3.83051L7.52266 3.83041C8.39331 3.83035 9.2988 4.00442 9.29887 5.01438C9.29893 5.88503 8.74175 6.51193 7.10493 6.51204L5.57259 6.51214L6.12962 3.83051ZM0.000915527 13.6867L4.04073 13.6864L4.87628 9.68135L7.62753 9.68117C11.1101 9.68093 13.3737 7.38227 13.3735 4.70067C13.3733 1.77529 11.806 0.417181 9.36821 0.417345L2.7861 0.417786L0.000915527 13.6867Z" fill="white"/>
<path d="M18.3539 4.97895L18.8417 8.94907L16.2994 8.94925L18.3539 4.97895ZM9.61315 13.686L13.7923 13.6857L14.8021 11.8051L19.1205 11.8048L19.3296 13.6854L23.3346 13.6851L21.3138 0.416547L17.274 0.416818L9.61315 13.686Z" fill="white"/>
<path d="M25.0408 8.80934L22.1845 0.416478L26.2939 0.416202L27.548 5.36141L30.7865 0.415901L35.5925 0.415578L29.1154 8.77424L28.1058 13.6848L24.0311 13.685L25.0408 8.80934Z" fill="white"/>
<path d="M45.3441 8.63378C45.1004 9.99201 44.0559 13.9971 38.5185 13.9974C34.6529 13.9977 32.8069 11.4903 32.8067 7.9381C32.8064 3.65451 35.4877 0.0672523 40.0151 0.0669484C42.9753 0.0667497 45.6222 1.35513 45.6921 5.32529L41.8264 5.32555C41.8612 4.07181 41.2691 3.37533 40.0153 3.37541C37.7517 3.37557 36.916 5.98757 36.9161 7.86817C36.9162 8.9826 37.1949 10.6542 39.0755 10.6541C40.3641 10.654 41.0954 9.78332 41.3391 8.59922L45.3441 8.63378Z" fill="white"/>
<path d="M47.7117 0.41477L51.8212 0.414494L50.8463 5.01159L54.5727 5.01134L55.5475 0.414244L59.657 0.413968L56.8718 13.6828L52.7972 13.6831L53.8764 8.42433L50.15 8.42458L49.036 13.6834L44.9613 13.6836L47.7117 0.41477Z" fill="white"/>
<path d="M60.7362 0.413899L71.7063 0.413162L71.0101 3.82615L64.1145 3.82662L63.7664 5.46346L70.1743 5.46303L69.5129 8.63224L63.1049 8.63267L62.7567 10.2695L69.7916 10.269L69.0953 13.682L57.951 13.6828L60.7362 0.413899Z" fill="white"/>
<path d="M74.5282 6.6468L71.4631 0.413156L75.9208 0.412857L77.2096 3.86054L79.8561 0.412593L84.697 0.412268L79.16 6.64649L82.3993 13.6811L77.8023 13.6814L76.3394 9.98997L73.2401 13.6817L68.2252 13.6821L74.5282 6.6468Z" fill="white"/>
<path d="M85.2188 1.00427C85.2187 0.516708 85.567 0.133599 86.0545 0.133566C86.5073 0.133536 86.8904 0.516596 86.8904 1.00416C86.8904 1.49172 86.5422 1.87483 86.0546 1.87487C85.6019 1.8749 85.2188 1.49184 85.2188 1.00427ZM85.0446 1.00428C85.0447 1.59633 85.4974 2.01421 86.0546 2.01417C86.6119 2.01413 87.0646 1.59619 87.0645 1.00415C87.0645 0.446932 86.6117 -0.00577471 86.0545 -0.0057373C85.4973 -0.0056999 85.0446 0.447068 85.0446 1.00428ZM85.6715 1.59628L85.8457 1.59627L85.8456 1.10871L86.0198 1.1087L86.3332 1.63106L86.5422 1.63105L86.1939 1.10868C86.368 1.10867 86.5073 1.00419 86.5073 0.79523C86.5073 0.551448 86.368 0.446979 86.0894 0.446998L85.6715 0.447026L85.6715 1.59628ZM85.8456 0.586318L86.0894 0.586302C86.2287 0.586293 86.3332 0.621111 86.3332 0.760415C86.3332 0.934545 86.1939 0.969381 86.0198 0.969392L85.8456 0.969404L85.8456 0.586318Z" fill="white"/>
</svg>
